<?xml version="1.0" encoding="utf-8" ?>
<!DOCTYPE svg PUBLIC "-//W3C//DTD SVG 1.1//EN" "http://www.w3.org/Graphics/SVG/1.1/DTD/svg11.dtd">
<svg height="1364" version="1.1" width="1076" xmlns="http://www.w3.org/2000/svg">
<rect fill="#c8c8ff" height="112" stroke="#c8c8ff" stroke-width="1" width="128" x="616" y="798"/>
<rect fill="none" height="112" stroke="#000000" stroke-width="1" width="128" x="616" y="798"/>
<text font-family="Lucida Grande" font-size="13" x="654" y="812">
Account</text>
<rect fill="#000000" height="1" stroke="#000000" stroke-width="1" width="128" x="616" y="822"/>
<text font-family="Lucida Grande" font-size="13" x="620" y="837">
startTime</text>
<text font-family="Lucida Grande" font-size="13" x="620" y="854">
endTime</text>
<text font-family="Lucida Grande" font-size="13" x="620" y="871">
status</text>
<rect fill="#000000" height="1" stroke="#000000" stroke-width="1" width="128" x="616" y="884"/>
<rect fill="#c8c8ff" height="80" stroke="#c8c8ff" stroke-width="1" width="128" x="344" y="798"/>
<rect fill="none" height="80" stroke="#000000" stroke-width="1" width="128" x="344" y="798"/>
<text font-family="Lucida Grande" font-size="13" x="363" y="812">
WorkflowDefn</text>
<rect fill="#000000" height="1" stroke="#000000" stroke-width="1" width="128" x="344" y="822"/>
<rect fill="#000000" height="1" stroke="#000000" stroke-width="1" width="128" x="344" y="849"/>
<rect fill="#c8c8ff" height="67" stroke="#c8c8ff" stroke-width="1" width="159" x="872" y="830"/>
<rect fill="none" height="67" stroke="#000000" stroke-width="1" width="159" x="872" y="830"/>
<text font-family="Lucida Grande" font-size="13" x="881" y="844">
WorkflowSystemAgent</text>
<rect fill="#000000" height="1" stroke="#000000" stroke-width="1" width="159" x="872" y="854"/>
<rect fill="#000000" height="1" stroke="#000000" stroke-width="1" width="159" x="872" y="875"/>
<rect fill="#c8c8ff" height="67" stroke="#c8c8ff" stroke-width="1" width="160" x="872" y="958"/>
<rect fill="none" height="67" stroke="#000000" stroke-width="1" width="160" x="872" y="958"/>
<text font-family="Lucida Grande" font-size="13" x="881" y="972">
WorkflowSystemAgent</text>
<rect fill="#000000" height="1" stroke="#000000" stroke-width="1" width="160" x="872" y="982"/>
<rect fill="#000000" height="1" stroke="#000000" stroke-width="1" width="160" x="872" y="1003"/>
<polyline fill="none" points="744,846 872,846" stroke="#000000" stroke-width="1"/>
<text font-family="Lucida Grande" font-size="13" x="789" y="841">
createdIn</text>
<polyline fill="none" points="744,870 769,870 849,974 872,974" stroke="#000000" stroke-width="1"/>
<text font-family="Lucida Grande" font-size="13" x="786" y="885">
executedIn</text>
<polyline fill="none" points="616,814 472,814" stroke="#000000" stroke-width="1"/>
<text font-family="Lucida Grande" font-size="13" x="481" y="806">
hasWorkflowDefn</text>
<rect fill="#c8c8ff" height="80" stroke="#c8c8ff" stroke-width="1" width="128" x="344" y="942"/>
<rect fill="none" height="80" stroke="#000000" stroke-width="1" width="128" x="344" y="942"/>
<text font-family="Lucida Grande" font-size="13" x="389" y="956">
Agent</text>
<rect fill="#000000" height="1" stroke="#000000" stroke-width="1" width="128" x="344" y="966"/>
<rect fill="#000000" height="1" stroke="#000000" stroke-width="1" width="128" x="344" y="993"/>
<polyline fill="none" points="472,958 513,958 577,846 616,846" stroke="#000000" stroke-width="1"/>
<text font-family="Lucida Grande" font-size="13" x="544" y="841">
usedIn</text>
<rect fill="#c8c8ff" height="67" stroke="#c8c8ff" stroke-width="1" width="128" x="344" y="1086"/>
<rect fill="none" height="67" stroke="#000000" stroke-width="1" width="128" x="344" y="1086"/>
<text font-family="Lucida Grande" font-size="13" x="357" y="1100">
ProcessInstance</text>
<rect fill="#000000" height="1" stroke="#000000" stroke-width="1" width="128" x="344" y="1110"/>
<rect fill="#000000" height="1" stroke="#000000" stroke-width="1" width="128" x="344" y="1131"/>
<polyline fill="none" points="457,1086 457,1070 649,990 649,910" stroke="#000000" stroke-width="1"/>
<line fill="#000000" stroke="#000000" stroke-width="1" x1="656" x2="649" y1="922" y2="910"/>
<line fill="#000000" stroke="#000000" stroke-width="1" x1="642" x2="649" y1="922" y2="910"/>
<text font-family="Lucida Grande" font-size="13" x="605" y="929">
usedIn</text>
<rect fill="#c8c8ff" height="67" stroke="#c8c8ff" stroke-width="1" width="128" x="872" y="1086"/>
<rect fill="none" height="67" stroke="#000000" stroke-width="1" width="128" x="872" y="1086"/>
<text font-family="Lucida Grande" font-size="13" x="886" y="1100">
ArtifactInstance</text>
<rect fill="#000000" height="1" stroke="#000000" stroke-width="1" width="128" x="872" y="1110"/>
<rect fill="#000000" height="1" stroke="#000000" stroke-width="1" width="128" x="872" y="1131"/>
<rect fill="#c8c8ff" height="80" stroke="#c8c8ff" stroke-width="1" width="128" x="872" y="1230"/>
<rect fill="none" height="80" stroke="#000000" stroke-width="1" width="128" x="872" y="1230"/>
<text font-family="Lucida Grande" font-size="13" x="883" y="1244">
ArtifactTemplate</text>
<rect fill="#000000" height="1" stroke="#000000" stroke-width="1" width="128" x="872" y="1254"/>
<rect fill="#000000" height="1" stroke="#000000" stroke-width="1" width="128" x="872" y="1281"/>
<polyline fill="none" points="937,1153 937,1230" stroke="#000000" stroke-width="1"/>
<line fill="#000000" stroke="#000000" stroke-width="1" x1="930" x2="937" y1="1218" y2="1230"/>
<line fill="#000000" stroke="#000000" stroke-width="1" x1="944" x2="937" y1="1218" y2="1230"/>
<text font-family="Lucida Grande" font-size="13" x="952" y="1220">
1</text>
<text font-family="Lucida Grande" font-size="13" x="801" y="1220">
hasArtifactTemplate</text>
<rect fill="#c8c8ff" height="80" stroke="#c8c8ff" stroke-width="1" width="128" x="344" y="1230"/>
<rect fill="none" height="80" stroke="#000000" stroke-width="1" width="128" x="344" y="1230"/>
<text font-family="Lucida Grande" font-size="13" x="355" y="1244">
ProcessTemplate</text>
<rect fill="#000000" height="1" stroke="#000000" stroke-width="1" width="128" x="344" y="1254"/>
<rect fill="#000000" height="1" stroke="#000000" stroke-width="1" width="128" x="344" y="1281"/>
<polyline fill="none" points="409,1153 409,1230" stroke="#000000" stroke-width="1"/>
<line fill="#000000" stroke="#000000" stroke-width="1" x1="402" x2="409" y1="1218" y2="1230"/>
<line fill="#000000" stroke="#000000" stroke-width="1" x1="416" x2="409" y1="1218" y2="1230"/>
<text font-family="Lucida Grande" font-size="13" x="387" y="1216">
1</text>
<text font-family="Lucida Grande" font-size="13" x="419" y="1216">
hasProcessTemplate</text>
<polyline fill="none" points="409,1086 409,1022" stroke="#000000" stroke-width="1"/>
<line fill="#000000" stroke="#000000" stroke-width="1" x1="416" x2="409" y1="1034" y2="1022"/>
<line fill="#000000" stroke="#000000" stroke-width="1" x1="402" x2="409" y1="1034" y2="1022"/>
<text font-family="Lucida Grande" font-size="13" x="415" y="1046">
controlledBy</text>
<rect fill="#ffffff" height="67" stroke="#ffffff" stroke-width="1" width="128" x="104" y="142"/>
<rect fill="none" height="67" stroke="#000000" stroke-width="1" width="128" x="104" y="142"/>
<text font-family="Lucida Grande" font-size="13" x="119" y="156">
ResearchObject</text>
<rect fill="#000000" height="1" stroke="#000000" stroke-width="1" width="128" x="104" y="166"/>
<rect fill="#000000" height="1" stroke="#000000" stroke-width="1" width="128" x="104" y="187"/>
<rect fill="#ffffff" height="67" stroke="#ffffff" stroke-width="1" width="128" x="296" y="142"/>
<rect fill="none" height="67" stroke="#000000" stroke-width="1" width="128" x="296" y="142"/>
<text font-family="Lucida Grande" font-size="13" x="309" y="156">
ore:Aggregation</text>
<rect fill="#000000" height="1" stroke="#000000" stroke-width="1" width="128" x="296" y="166"/>
<rect fill="#000000" height="1" stroke="#000000" stroke-width="1" width="128" x="296" y="187"/>
<polyline fill="none" points="232,158 296,158" stroke="#000000" stroke-width="1"/>
<polygon fill="#ffffff" points="296,158 284,165 284,151" stroke="#ffffff" stroke-width="1"/>
<polygon fill="none" points="296,158 284,165 284,151" stroke="#000000" stroke-width="1"/>
<polyline fill="none" points="889,1086 889,1070 713,990 713,910" stroke="#000000" stroke-width="1"/>
<line fill="#000000" stroke="#000000" stroke-width="1" x1="720" x2="713" y1="922" y2="910"/>
<line fill="#000000" stroke="#000000" stroke-width="1" x1="706" x2="713" y1="922" y2="910"/>
<text font-family="Lucida Grande" font-size="13" x="715" y="928">
usedIn</text>
<rect fill="#ffffff" height="67" stroke="#ffffff" stroke-width="1" width="128" x="488" y="142"/>
<rect fill="none" height="67" stroke="#000000" stroke-width="1" width="128" x="488" y="142"/>
<text font-family="Lucida Grande" font-size="13" x="523" y="156">
Resource</text>
<rect fill="#000000" height="1" stroke="#000000" stroke-width="1" width="128" x="488" y="166"/>
<rect fill="#000000" height="1" stroke="#000000" stroke-width="1" width="128" x="488" y="187"/>
<polyline fill="none" points="424,158 488,158" stroke="#000000" stroke-width="1"/>
<polygon fill="#ffffff" points="488,158 476,165 476,151" stroke="#ffffff" stroke-width="1"/>
<polygon fill="none" points="488,158 476,165 476,151" stroke="#000000" stroke-width="1"/>
<rect fill="#ffffff" height="67" stroke="#ffffff" stroke-width="1" width="128" x="872" y="430"/>
<rect fill="none" height="67" stroke="#000000" stroke-width="1" width="128" x="872" y="430"/>
<text font-family="Lucida Grande" font-size="13" x="886" y="444">
AnnotationBody</text>
<rect fill="#000000" height="1" stroke="#000000" stroke-width="1" width="128" x="872" y="454"/>
<rect fill="#000000" height="1" stroke="#000000" stroke-width="1" width="128" x="872" y="475"/>
<rect fill="#ffffff" height="67" stroke="#ffffff" stroke-width="1" width="128" x="488" y="430"/>
<rect fill="none" height="67" stroke="#000000" stroke-width="1" width="128" x="488" y="430"/>
<text font-family="Lucida Grande" font-size="13" x="497" y="444">
AnnotationTarget</text>
<rect fill="#000000" height="1" stroke="#000000" stroke-width="1" width="128" x="488" y="454"/>
<rect fill="#000000" height="1" stroke="#000000" stroke-width="1" width="128" x="488" y="475"/>
<polyline fill="none" points="872,1102 472,1102" stroke="#000000" stroke-width="1"/>
<line fill="#000000" stroke="#000000" stroke-width="1" x1="484" x2="472" y1="1095" y2="1102"/>
<line fill="#000000" stroke="#000000" stroke-width="1" x1="484" x2="472" y1="1109" y2="1102"/>
<text font-family="Lucida Grande" font-size="13" x="492" y="1117">
1</text>
<text font-family="Lucida Grande" font-size="13" x="487" y="1093">
generatedBy</text>
<polyline fill="none" points="472,1126 872,1126" stroke="#000000" stroke-width="1"/>
<line fill="#000000" stroke="#000000" stroke-width="1" x1="860" x2="872" y1="1133" y2="1126"/>
<line fill="#000000" stroke="#000000" stroke-width="1" x1="860" x2="872" y1="1119" y2="1126"/>
<text font-family="Lucida Grande" font-size="13" x="811" y="1122">
used</text>
<polygon fill="#ffc8ff" points="824,134 1051,134 1061,144 1061,221 824,221 824,134" stroke="#ffc8ff" stroke-width="1"/>
<polyline fill="none" points="824,134 1051,134 1061,144 1061,221 824,221 824,134" stroke="#000000" stroke-width="1"/>
<polygon fill="#ffc8ff" points="1051,134 1061,144 1051,144 1051,134" stroke="#ffc8ff" stroke-width="1"/>
<polyline fill="none" points="1051,134 1061,144 1051,144 1051,134" stroke="#000000" stroke-width="1"/>
<text font-family="Lucida Grande" font-size="13" x="827" y="150">
ResourceRel has been modelled as </text>
<text font-family="Lucida Grande" font-size="13" x="827" y="166">
an "association class", but for </text>
<text font-family="Lucida Grande" font-size="13" x="827" y="182">
representation in RDF a separate </text>
<text font-family="Lucida Grande" font-size="13" x="827" y="198">
class with multiple associations </text>
<text font-family="Lucida Grande" font-size="13" x="827" y="214">
might be easier?</text>
<polyline fill="none" points="200,209 200,230 496,230 496,209" stroke="#000000" stroke-width="1"/>
<line fill="#000000" stroke="#000000" stroke-width="1" x1="503" x2="496" y1="221" y2="209"/>
<line fill="#000000" stroke="#000000" stroke-width="1" x1="489" x2="496" y1="221" y2="209"/>
<text font-family="Lucida Grande" font-size="13" x="461" y="246">
0..*</text>
<text font-family="Lucida Grande" font-size="13" x="389" y="228">
ore:aggregates</text>
<polyline fill="none" points="472,862 505,862 809,1246 872,1246" stroke="#000000" stroke-width="1"/>
<line fill="#000000" stroke="#000000" stroke-width="1" x1="860" x2="872" y1="1253" y2="1246"/>
<line fill="#000000" stroke="#000000" stroke-width="1" x1="860" x2="872" y1="1239" y2="1246"/>
<text font-family="Lucida Grande" font-size="13" x="841" y="1235">
0..*</text>
<text font-family="Lucida Grande" font-size="13" x="797" y="1265">
hasArtifact</text>
<polyline fill="none" points="344,814 313,814 313,1246 344,1246" stroke="#000000" stroke-width="1"/>
<line fill="#000000" stroke="#000000" stroke-width="1" x1="332" x2="344" y1="1253" y2="1246"/>
<line fill="#000000" stroke="#000000" stroke-width="1" x1="332" x2="344" y1="1239" y2="1246"/>
<text font-family="Lucida Grande" font-size="13" x="285" y="1230">
0..*</text>
<text font-family="Lucida Grande" font-size="13" x="267" y="1265">
hasProcess</text>
<rect fill="#ffffff" height="67" stroke="#ffffff" stroke-width="1" width="128" x="680" y="270"/>
<rect fill="none" height="67" stroke="#000000" stroke-width="1" width="128" x="680" y="270"/>
<text font-family="Lucida Grande" font-size="13" x="709" y="284">
Annotation</text>
<rect fill="#000000" height="1" stroke="#000000" stroke-width="1" width="128" x="680" y="294"/>
<rect fill="#000000" height="1" stroke="#000000" stroke-width="1" width="128" x="680" y="315"/>
<polyline fill="none" points="720,337 720,382 592,382 592,430" stroke="#000000" stroke-width="1"/>
<line fill="#000000" stroke="#000000" stroke-width="1" x1="585" x2="592" y1="418" y2="430"/>
<line fill="#000000" stroke="#000000" stroke-width="1" x1="599" x2="592" y1="418" y2="430"/>
<text font-family="Lucida Grande" font-size="13" x="571" y="411">
1</text>
<text font-family="Lucida Grande" font-size="13" x="595" y="409">
ao:annotatesResource</text>
<polyline fill="none" points="768,337 768,382 904,382 904,430" stroke="#000000" stroke-width="1"/>
<line fill="#000000" stroke="#000000" stroke-width="1" x1="897" x2="904" y1="418" y2="430"/>
<line fill="#000000" stroke="#000000" stroke-width="1" x1="911" x2="904" y1="418" y2="430"/>
<text font-family="Lucida Grande" font-size="13" x="917" y="416">
1</text>
<text font-family="Lucida Grande" font-size="13" x="817" y="416">
ao:hasTopic</text>
<polyline fill="none" points="680,286 568,286 568,209" stroke="#000000" stroke-width="1"/>
<polygon fill="#ffffff" points="568,209 575,221 561,221" stroke="#ffffff" stroke-width="1"/>
<polygon fill="none" points="568,209 575,221 561,221" stroke="#000000" stroke-width="1"/>
<rect fill="#ffffff" height="67" stroke="#ffffff" stroke-width="1" width="128" x="296" y="270"/>
<rect fill="none" height="67" stroke="#000000" stroke-width="1" width="128" x="296" y="270"/>
<text font-family="Lucida Grande" font-size="13" x="336" y="284">
Artifact</text>
<rect fill="#000000" height="1" stroke="#000000" stroke-width="1" width="128" x="296" y="294"/>
<rect fill="#000000" height="1" stroke="#000000" stroke-width="1" width="128" x="296" y="315"/>
<polyline fill="none" points="424,286 536,286 536,209" stroke="#000000" stroke-width="1"/>
<polygon fill="#ffffff" points="536,209 543,221 529,221" stroke="#ffffff" stroke-width="1"/>
<polygon fill="none" points="536,209 543,221 529,221" stroke="#000000" stroke-width="1"/>
<rect fill="#ffffff" height="67" stroke="#ffffff" stroke-width="1" width="128" x="872" y="558"/>
<rect fill="none" height="67" stroke="#000000" stroke-width="1" width="128" x="872" y="558"/>
<text font-family="Lucida Grande" font-size="13" x="894" y="572">
WorkflowRun</text>
<rect fill="#000000" height="1" stroke="#000000" stroke-width="1" width="128" x="872" y="582"/>
<rect fill="#000000" height="1" stroke="#000000" stroke-width="1" width="128" x="872" y="603"/>
<rect fill="#ffffff" height="67" stroke="#ffffff" stroke-width="1" width="128" x="296" y="430"/>
<rect fill="none" height="67" stroke="#000000" stroke-width="1" width="128" x="296" y="430"/>
<text font-family="Lucida Grande" font-size="13" x="315" y="444">
WorkflowDefn</text>
<rect fill="#000000" height="1" stroke="#000000" stroke-width="1" width="128" x="296" y="454"/>
<rect fill="#000000" height="1" stroke="#000000" stroke-width="1" width="128" x="296" y="475"/>
<polyline fill="none" points="936,558 936,497" stroke="#000000" stroke-width="1"/>
<polygon fill="#ffffff" points="936,497 943,509 929,509" stroke="#ffffff" stroke-width="1"/>
<polygon fill="none" points="936,497 943,509 929,509" stroke="#000000" stroke-width="1"/>
<polyline fill="none" points="680,798 680,574 872,574" stroke="#000000" stroke-width="1"/>
<polygon fill="#ffffff" points="872,574 860,581 860,567" stroke="#ffffff" stroke-width="1"/>
<polygon fill="none" points="872,574 860,581 860,567" stroke="#000000" stroke-width="1"/>
<polyline fill="none" points="600,209 600,222 632,222 632,190 616,190" stroke="#000000" stroke-width="1"/>
<ellipse cx="630" cy="219" fill="#000000" rx="0.5" ry="0.5" stroke="#000000" stroke-width="1"/>
<ellipse cx="631" cy="220" fill="#ffffff" rx="-0.5" ry="-0.5" stroke="#ffffff" stroke-width="1"/>
<rect fill="#ffffff" height="67" stroke="#ffffff" stroke-width="1" width="112" x="680" y="134"/>
<rect fill="none" height="67" stroke="#000000" stroke-width="1" width="112" x="680" y="134"/>
<text font-family="Lucida Grande" font-size="13" x="698" y="148">
ResourceRel</text>
<rect fill="#000000" height="1" stroke="#000000" stroke-width="1" width="112" x="680" y="158"/>
<rect fill="#000000" height="1" stroke="#000000" stroke-width="1" width="112" x="680" y="179"/>
<line fill="#000000" stroke="#000000" stroke-width="1" x1="631" x2="633" y1="219" y2="215"/>
<line fill="#000000" stroke="#000000" stroke-width="1" x1="635" x2="637" y1="210" y2="206"/>
<line fill="#000000" stroke="#000000" stroke-width="1" x1="639" x2="641" y1="201" y2="197"/>
<line fill="#000000" stroke="#000000" stroke-width="1" x1="644" x2="646" y1="192" y2="188"/>
<line fill="#000000" stroke="#000000" stroke-width="1" x1="648" x2="650" y1="183" y2="179"/>
<line fill="#000000" stroke="#000000" stroke-width="1" x1="652" x2="654" y1="174" y2="170"/>
<line fill="#000000" stroke="#000000" stroke-width="1" x1="657" x2="659" y1="165" y2="160"/>
<line fill="#000000" stroke="#000000" stroke-width="1" x1="661" x2="663" y1="156" y2="151"/>
<line fill="#000000" stroke="#000000" stroke-width="1" x1="664" x2="669" y1="150" y2="150"/>
<line fill="#000000" stroke="#000000" stroke-width="1" x1="674" x2="679" y1="150" y2="150"/>
<rect fill="#ffffff" height="67" stroke="#ffffff" stroke-width="1" width="128" x="104" y="14"/>
<rect fill="none" height="67" stroke="#000000" stroke-width="1" width="128" x="104" y="14"/>
<text font-family="Lucida Grande" font-size="13" x="141" y="28">
Manifest</text>
<rect fill="#000000" height="1" stroke="#000000" stroke-width="1" width="128" x="104" y="38"/>
<rect fill="#000000" height="1" stroke="#000000" stroke-width="1" width="128" x="104" y="59"/>
<rect fill="#ffffff" height="67" stroke="#ffffff" stroke-width="1" width="128" x="296" y="14"/>
<rect fill="none" height="67" stroke="#000000" stroke-width="1" width="128" x="296" y="14"/>
<text font-family="Lucida Grande" font-size="13" x="306" y="28">
ore:ResourceMap</text>
<rect fill="#000000" height="1" stroke="#000000" stroke-width="1" width="128" x="296" y="38"/>
<rect fill="#000000" height="1" stroke="#000000" stroke-width="1" width="128" x="296" y="59"/>
<polyline fill="none" points="232,30 296,30" stroke="#000000" stroke-width="1"/>
<polygon fill="#ffffff" points="296,30 284,37 284,23" stroke="#ffffff" stroke-width="1"/>
<polygon fill="none" points="296,30 284,37 284,23" stroke="#000000" stroke-width="1"/>
<polyline fill="none" points="360,81 360,142" stroke="#000000" stroke-width="1"/>
<line fill="#000000" stroke="#000000" stroke-width="1" x1="353" x2="360" y1="130" y2="142"/>
<line fill="#000000" stroke="#000000" stroke-width="1" x1="367" x2="360" y1="130" y2="142"/>
<text font-family="Lucida Grande" font-size="13" x="271" y="130">
ore:describes</text>
<polyline fill="none" points="168,81 168,142" stroke="#000000" stroke-width="1"/>
<line fill="#000000" stroke="#000000" stroke-width="1" x1="161" x2="168" y1="130" y2="142"/>
<line fill="#000000" stroke="#000000" stroke-width="1" x1="175" x2="168" y1="130" y2="142"/>
<text font-family="Lucida Grande" font-size="13" x="76" y="128">
ore:describes</text>
<rect fill="#ffffff" height="67" stroke="#ffffff" stroke-width="1" width="128" x="104" y="270"/>
<rect fill="none" height="67" stroke="#000000" stroke-width="1" width="128" x="104" y="270"/>
<text font-family="Lucida Grande" font-size="13" x="129" y="284">
WorkflowRO</text>
<rect fill="#000000" height="1" stroke="#000000" stroke-width="1" width="128" x="104" y="294"/>
<rect fill="#000000" height="1" stroke="#000000" stroke-width="1" width="128" x="104" y="315"/>
<polyline fill="none" points="168,270 168,209" stroke="#000000" stroke-width="1"/>
<polygon fill="#ffffff" points="168,209 175,221 161,221" stroke="#ffffff" stroke-width="1"/>
<polygon fill="none" points="168,209 175,221 161,221" stroke="#000000" stroke-width="1"/>
<polyline fill="none" points="216,337 216,382 312,382 312,430" stroke="#000000" stroke-width="1"/>
<line fill="#000000" stroke="#000000" stroke-width="1" x1="305" x2="312" y1="418" y2="430"/>
<line fill="#000000" stroke="#000000" stroke-width="1" x1="319" x2="312" y1="418" y2="430"/>
<text font-family="Lucida Grande" font-size="13" x="322" y="414">
1..*</text>
<text font-family="Lucida Grande" font-size="13" x="217" y="415">
ore:aggregates</text>
<polyline fill="none" points="360,430 360,337" stroke="#000000" stroke-width="1"/>
<polygon fill="#ffffff" points="360,337 367,349 353,349" stroke="#ffffff" stroke-width="1"/>
<polygon fill="none" points="360,337 367,349 353,349" stroke="#000000" stroke-width="1"/>
<polyline fill="none" points="520,430 520,382 392,382 392,337" stroke="#000000" stroke-width="1"/>
<polygon fill="#ffffff" points="392,337 399,349 385,349" stroke="#ffffff" stroke-width="1"/>
<polygon fill="none" points="392,337 399,349 385,349" stroke="#000000" stroke-width="1"/>
<rect fill="#c8ffff" height="67" stroke="#c8ffff" stroke-width="1" width="128" x="296" y="558"/>
<rect fill="none" height="67" stroke="#000000" stroke-width="1" width="128" x="296" y="558"/>
<text font-family="Lucida Grande" font-size="13" x="321" y="572">
ProcessDefn</text>
<rect fill="#000000" height="1" stroke="#000000" stroke-width="1" width="128" x="296" y="582"/>
<rect fill="#000000" height="1" stroke="#000000" stroke-width="1" width="128" x="296" y="603"/>
<polyline fill="none" points="360,497 360,558" stroke="#000000" stroke-width="1"/>
<polygon fill="#ffffff" points="360,558 353,546 367,546" stroke="#ffffff" stroke-width="1"/>
<polygon fill="none" points="360,558 353,546 367,546" stroke="#000000" stroke-width="1"/>
<polyline fill="none" points="296,478 264,478 264,574 296,574" stroke="#000000" stroke-width="1"/>
<line fill="#000000" stroke="#000000" stroke-width="1" x1="284" x2="296" y1="581" y2="574"/>
<line fill="#000000" stroke="#000000" stroke-width="1" x1="284" x2="296" y1="567" y2="574"/>
<text font-family="Lucida Grande" font-size="13" x="270" y="569">
1..*</text>
<text font-family="Lucida Grande" font-size="13" x="241" y="528">
hasProcessDefn</text>
<rect fill="#c8ffff" height="67" stroke="#c8ffff" stroke-width="1" width="128" x="104" y="558"/>
<rect fill="none" height="67" stroke="#000000" stroke-width="1" width="128" x="104" y="558"/>
<text font-family="Lucida Grande" font-size="13" x="140" y="572">
DataLink</text>
<rect fill="#000000" height="1" stroke="#000000" stroke-width="1" width="128" x="104" y="582"/>
<rect fill="#000000" height="1" stroke="#000000" stroke-width="1" width="128" x="104" y="603"/>
<polyline fill="none" points="296,462 168,462 168,558" stroke="#000000" stroke-width="1"/>
<line fill="#000000" stroke="#000000" stroke-width="1" x1="161" x2="168" y1="546" y2="558"/>
<line fill="#000000" stroke="#000000" stroke-width="1" x1="175" x2="168" y1="546" y2="558"/>
<text font-family="Lucida Grande" font-size="13" x="183" y="547">
0..*</text>
<text font-family="Lucida Grande" font-size="13" x="79" y="547">
hasDataLink</text>
<rect fill="#c8ffff" height="67" stroke="#c8ffff" stroke-width="1" width="128" x="104" y="686"/>
<rect fill="none" height="67" stroke="#000000" stroke-width="1" width="128" x="104" y="686"/>
<text font-family="Lucida Grande" font-size="13" x="151" y="700">
Input</text>
<rect fill="#000000" height="1" stroke="#000000" stroke-width="1" width="128" x="104" y="710"/>
<rect fill="#000000" height="1" stroke="#000000" stroke-width="1" width="128" x="104" y="731"/>
<rect fill="#c8ffff" height="67" stroke="#c8ffff" stroke-width="1" width="128" x="296" y="686"/>
<rect fill="none" height="67" stroke="#000000" stroke-width="1" width="128" x="296" y="686"/>
<text font-family="Lucida Grande" font-size="13" x="338" y="700">
Output</text>
<rect fill="#000000" height="1" stroke="#000000" stroke-width="1" width="128" x="296" y="710"/>
<rect fill="#000000" height="1" stroke="#000000" stroke-width="1" width="128" x="296" y="731"/>
<polyline fill="none" points="120,625 120,686" stroke="#000000" stroke-width="1"/>
<line fill="#000000" stroke="#000000" stroke-width="1" x1="113" x2="120" y1="674" y2="686"/>
<line fill="#000000" stroke="#000000" stroke-width="1" x1="127" x2="120" y1="674" y2="686"/>
<text font-family="Lucida Grande" font-size="13" x="134" y="681">
1</text>
<text font-family="Lucida Grande" font-size="13" x="66" y="674">
hasSink</text>
<polyline fill="none" points="216,625 216,638 312,662 312,686" stroke="#000000" stroke-width="1"/>
<line fill="#000000" stroke="#000000" stroke-width="1" x1="305" x2="312" y1="674" y2="686"/>
<line fill="#000000" stroke="#000000" stroke-width="1" x1="319" x2="312" y1="674" y2="686"/>
<text font-family="Lucida Grande" font-size="13" x="290" y="678">
1</text>
<text font-family="Lucida Grande" font-size="13" x="318" y="677">
hasSource</text>
<polyline fill="none" points="312,625 312,638 216,662 216,686" stroke="#000000" stroke-width="1"/>
<line fill="#000000" stroke="#000000" stroke-width="1" x1="209" x2="216" y1="674" y2="686"/>
<line fill="#000000" stroke="#000000" stroke-width="1" x1="223" x2="216" y1="674" y2="686"/>
<text font-family="Lucida Grande" font-size="13" x="228" y="675">
0..*</text>
<text font-family="Lucida Grande" font-size="13" x="158" y="675">
hasInput</text>
<polyline fill="none" points="408,625 408,686" stroke="#000000" stroke-width="1"/>
<line fill="#000000" stroke="#000000" stroke-width="1" x1="401" x2="408" y1="674" y2="686"/>
<line fill="#000000" stroke="#000000" stroke-width="1" x1="415" x2="408" y1="674" y2="686"/>
<text font-family="Lucida Grande" font-size="13" x="423" y="660">
1..*</text>
<text font-family="Lucida Grande" font-size="13" x="423" y="679">
hasOutput</text>
<rect fill="#c8ffff" height="67" stroke="#c8ffff" stroke-width="1" width="128" x="104" y="814"/>
<rect fill="none" height="67" stroke="#000000" stroke-width="1" width="128" x="104" y="814"/>
<text font-family="Lucida Grande" font-size="13" x="137" y="828">
Parameter</text>
<rect fill="#000000" height="1" stroke="#000000" stroke-width="1" width="128" x="104" y="838"/>
<rect fill="#000000" height="1" stroke="#000000" stroke-width="1" width="128" x="104" y="859"/>
<polyline fill="none" points="168,753 168,814" stroke="#000000" stroke-width="1"/>
<polygon fill="#ffffff" points="168,814 161,802 175,802" stroke="#ffffff" stroke-width="1"/>
<polygon fill="none" points="168,814 161,802 175,802" stroke="#000000" stroke-width="1"/>
<polyline fill="none" points="312,753 312,766 216,782 216,814" stroke="#000000" stroke-width="1"/>
<polygon fill="#ffffff" points="216,814 209,802 223,802" stroke="#ffffff" stroke-width="1"/>
<polygon fill="none" points="216,814 209,802 223,802" stroke="#000000" stroke-width="1"/>
<polyline fill="none" points="168,881 168,1350 760,1350 808,1294 872,1294" stroke="#000000" stroke-width="1"/>
<line fill="#000000" stroke="#000000" stroke-width="1" x1="860" x2="872" y1="1301" y2="1294"/>
<line fill="#000000" stroke="#000000" stroke-width="1" x1="860" x2="872" y1="1287" y2="1294"/>
<text font-family="Lucida Grande" font-size="13" x="737" y="1313">
hasArtifactTemplate</text>
</svg>
