<?xml version="1.0" encoding="utf-8" ?>
<!DOCTYPE svg PUBLIC "-//W3C//DTD SVG 1.1//EN" "http://www.w3.org/Graphics/SVG/1.1/DTD/svg11.dtd">
<svg height="606" version="1.1" width="596" xmlns="http://www.w3.org/2000/svg">
<rect fill="#ffffff" height="80" stroke="#ffffff" stroke-width="1" width="128" x="42" y="14"/>
<rect fill="none" height="80" stroke="#000000" stroke-width="1" width="128" x="42" y="14"/>
<text font-family="Lucida Grande" font-size="13" x="87" y="28">
Model</text>
<rect fill="#000000" height="1" stroke="#000000" stroke-width="1" width="128" x="42" y="38"/>
<rect fill="#000000" height="1" stroke="#000000" stroke-width="1" width="128" x="42" y="65"/>
<rect fill="#ffffff" height="80" stroke="#ffffff" stroke-width="1" width="128" x="426" y="14"/>
<rect fill="none" height="80" stroke="#000000" stroke-width="1" width="128" x="426" y="14"/>
<text font-family="Lucida Grande" font-size="13" x="450" y="28">
Requirement</text>
<rect fill="#000000" height="1" stroke="#000000" stroke-width="1" width="128" x="426" y="38"/>
<rect fill="#000000" height="1" stroke="#000000" stroke-width="1" width="128" x="426" y="65"/>
<rect fill="#ffffff" height="80" stroke="#ffffff" stroke-width="1" width="128" x="426" y="190"/>
<rect fill="none" height="80" stroke="#000000" stroke-width="1" width="128" x="426" y="190"/>
<text font-family="Lucida Grande" font-size="13" x="437" y="204">
RequirementRule</text>
<rect fill="#000000" height="1" stroke="#000000" stroke-width="1" width="128" x="426" y="214"/>
<rect fill="#000000" height="1" stroke="#000000" stroke-width="1" width="128" x="426" y="241"/>
<rect fill="#ffffff" height="80" stroke="#ffffff" stroke-width="1" width="128" x="426" y="366"/>
<rect fill="none" height="80" stroke="#000000" stroke-width="1" width="128" x="426" y="366"/>
<text font-family="Lucida Grande" font-size="13" x="469" y="380">
Report</text>
<rect fill="#000000" height="1" stroke="#000000" stroke-width="1" width="128" x="426" y="390"/>
<rect fill="#000000" height="1" stroke="#000000" stroke-width="1" width="128" x="426" y="417"/>
<rect fill="#ffffff" height="80" stroke="#ffffff" stroke-width="1" width="128" x="170" y="366"/>
<rect fill="none" height="80" stroke="#000000" stroke-width="1" width="128" x="170" y="366"/>
<text font-family="Lucida Grande" font-size="13" x="213" y="380">
Object</text>
<rect fill="#000000" height="1" stroke="#000000" stroke-width="1" width="128" x="170" y="390"/>
<rect fill="#000000" height="1" stroke="#000000" stroke-width="1" width="128" x="170" y="417"/>
<rect fill="#ffffff" height="80" stroke="#ffffff" stroke-width="1" width="128" x="42" y="510"/>
<rect fill="none" height="80" stroke="#000000" stroke-width="1" width="128" x="42" y="510"/>
<text font-family="Lucida Grande" font-size="13" x="97" y="524">
RO</text>
<rect fill="#000000" height="1" stroke="#000000" stroke-width="1" width="128" x="42" y="534"/>
<rect fill="#000000" height="1" stroke="#000000" stroke-width="1" width="128" x="42" y="561"/>
<rect fill="#ffffff" height="80" stroke="#ffffff" stroke-width="1" width="128" x="298" y="510"/>
<rect fill="none" height="80" stroke="#000000" stroke-width="1" width="128" x="298" y="510"/>
<text font-family="Lucida Grande" font-size="13" x="315" y="524">
AggregatedRes</text>
<rect fill="#000000" height="1" stroke="#000000" stroke-width="1" width="128" x="298" y="534"/>
<rect fill="#000000" height="1" stroke="#000000" stroke-width="1" width="128" x="298" y="561"/>
<polyline fill="none" points="490,366 490,270" stroke="#000000" stroke-width="1"/>
<polygon fill="#ffffff" points="490,270 497,282 483,282" stroke="#ffffff" stroke-width="1"/>
<polygon fill="none" points="490,270 497,282 483,282" stroke="#000000" stroke-width="1"/>
<polyline fill="none" points="330,510 330,478 266,478 266,446" stroke="#000000" stroke-width="1"/>
<polygon fill="#ffffff" points="266,446 273,458 259,458" stroke="#ffffff" stroke-width="1"/>
<polygon fill="none" points="266,446 273,458 259,458" stroke="#000000" stroke-width="1"/>
<polyline fill="none" points="138,510 138,478 202,478 202,446" stroke="#000000" stroke-width="1"/>
<polygon fill="#ffffff" points="202,446 209,458 195,458" stroke="#ffffff" stroke-width="1"/>
<polygon fill="none" points="202,446 209,458 195,458" stroke="#000000" stroke-width="1"/>
<polyline fill="none" points="298,406 426,406" stroke="#000000" stroke-width="1"/>
<polygon fill="#ffffff" points="426,406 414,413 414,399" stroke="#ffffff" stroke-width="1"/>
<polygon fill="none" points="426,406 414,413 414,399" stroke="#000000" stroke-width="1"/>
<polyline fill="none" points="250,366 250,318 442,126 442,94" stroke="#000000" stroke-width="1"/>
<text font-family="Lucida Grande" font-size="13" x="253" y="345">
isReportedBy</text>
<text font-family="Lucida Grande" font-size="13" x="381" y="118">
reports</text>
<polyline fill="none" points="170,550 298,550" stroke="#000000" stroke-width="1"/>
<text font-family="Lucida Grande" font-size="13" x="225" y="570">
aggregates</text>
<polyline fill="none" points="106,510 106,94" stroke="#000000" stroke-width="1"/>
<text font-family="Lucida Grande" font-size="13" x="118" y="119">
*Satisfies</text>
<polyline fill="none" points="170,54 426,54" stroke="#000000" stroke-width="1"/>
<text font-family="Lucida Grande" font-size="13" x="318" y="31">
hasRequirement</text>
<polyline fill="none" points="490,94 490,190" stroke="#000000" stroke-width="1"/>
<text font-family="Lucida Grande" font-size="13" x="499" y="115">
derives</text>
<text font-family="Lucida Grande" font-size="13" x="497" y="183">
isDerivedBy</text>
</svg>
